<?xml version="1.0" standalone="no"?>
<!DOCTYPE svg PUBLIC "-//W3C//DTD SVG 20010904//EN"
 "http://www.w3.org/TR/2001/REC-SVG-20010904/DTD/svg10.dtd">
<svg version="1.0" xmlns="http://www.w3.org/2000/svg"
 width="1025.000000pt" height="1087.000000pt" viewBox="0 0 1025.000000 1087.000000"
 preserveAspectRatio="xMidYMid meet">
<metadata>
Created by potrace 1.15, written by Peter Selinger 2001-2017
</metadata>
<g transform="translate(0.000000,1087.000000) scale(0.100000,-0.100000)"
fill="#000000" stroke="none">
<path d="M4735 10604 c-929 -47 -1679 -198 -2398 -480 -287 -113 -855 -410
-850 -445 1 -8 14 -59 29 -114 24 -87 27 -119 27 -240 1 -153 -11 -219 -63
-352 -108 -281 -365 -511 -656 -588 -33 -9 -102 -21 -156 -27 l-96 -11 4 -31
c2 -17 6 -159 9 -316 26 -1418 221 -2719 550 -3680 118 -343 300 -753 459
-1035 576 -1015 1613 -1980 2901 -2699 167 -93 557 -286 579 -286 25 0 405
189 606 301 533 297 1086 684 1499 1049 50 44 93 80 96 80 3 0 5 -67 5 -148 0
-173 11 -218 71 -286 22 -25 65 -57 97 -73 l57 -28 1085 0 c902 0 1092 2 1125
14 96 33 173 117 194 211 15 65 15 1901 0 1933 -17 38 -50 47 -168 47 l-108 0
-6 208 c-4 114 -13 239 -21 277 -39 192 -124 357 -259 502 -53 56 -171 152
-231 188 -16 9 -14 20 19 135 172 601 303 1362 370 2155 34 411 65 1038 65
1330 l0 151 -102 13 c-228 28 -419 120 -579 280 -275 275 -361 676 -222 1036
10 28 -434 270 -722 393 -655 279 -1385 450 -2220 517 -178 15 -833 27 -990
19z m335 -1359 l0 -574 33 -5 c17 -3 72 -8 121 -11 341 -24 735 -143 1022
-309 151 -87 317 -189 367 -226 52 -38 250 -213 291 -258 17 -19 65 -70 107
-115 41 -45 108 -131 148 -192 40 -60 84 -121 96 -135 13 -14 32 -43 42 -65
11 -22 39 -71 62 -109 24 -38 61 -114 83 -170 22 -56 55 -137 73 -181 83 -200
117 -352 155 -710 11 -102 11 -327 0 -430 -31 -299 -57 -431 -115 -590 -20
-55 -43 -122 -51 -149 -7 -27 -23 -65 -35 -85 -12 -20 -30 -61 -41 -91 -10
-30 -40 -91 -67 -135 -26 -44 -70 -118 -97 -165 -80 -138 -189 -277 -323 -410
-168 -167 -259 -251 -301 -280 -19 -14 -50 -37 -68 -52 -18 -16 -51 -37 -72
-48 -22 -11 -64 -39 -93 -61 -51 -39 -123 -77 -337 -178 -269 -126 -524 -192
-865 -224 l-130 -12 -5 -1081 -5 -1081 -88 47 c-49 26 -88 51 -87 55 0 3 -48
35 -107 69 -962 555 -1799 1308 -2306 2074 -429 649 -719 1471 -896 2542 -78
470 -145 1144 -167 1690 l-6 155 74 38 c284 147 565 444 714 754 85 176 164
466 164 601 0 21 3 54 7 75 6 37 10 41 82 74 251 116 625 248 916 322 498 126
1081 205 1558 210 l147 1 0 -575z m3738 -4706 c302 -69 544 -303 638 -616 24
-81 27 -107 32 -310 l4 -223 -81 0 -81 0 0 193 c0 161 -3 207 -20 272 -110
430 -568 664 -974 499 -133 -54 -280 -181 -354 -306 -77 -130 -102 -250 -102
-490 l0 -168 -75 0 -75 0 0 209 c0 188 2 218 24 304 61 241 225 448 445 561
196 101 399 125 619 75z m286 -562 c66 -111 78 -168 84 -384 l4 -193 -281 0
-281 0 64 128 c94 189 171 365 258 591 9 24 9 24 62 -28 29 -29 70 -80 90
-114z m676 -1631 l0 -903 -23 -34 c-49 -74 30 -69 -1151 -69 -1056 0 -1058 0
-1096 21 -20 11 -45 35 -56 52 -18 31 -19 66 -22 935 l-2 902 1175 0 1175 0 0
-904z"/>
<path d="M5070 7115 l0 -184 74 -35 c130 -60 246 -153 246 -198 0 -42 -32 -62
-87 -55 -42 5 -162 40 -215 62 -17 7 -18 -23 -18 -550 l0 -557 33 6 c64 12
186 24 358 37 311 22 569 -20 710 -115 136 -93 180 -168 182 -313 1 -46 6 -83
10 -83 17 0 154 136 185 184 56 86 111 201 138 293 21 71 26 109 27 198 1 147
-26 241 -107 379 -86 145 -222 259 -440 368 -128 64 -316 138 -353 138 -42 1
-107 34 -130 66 -11 16 -35 58 -54 94 -44 85 -233 282 -297 310 -25 11 -67 36
-93 55 -27 19 -55 35 -62 35 -7 0 -17 4 -22 9 -6 5 -27 16 -47 25 l-38 15 0
-184z m922 -801 c18 -9 46 -28 61 -43 30 -27 63 -81 50 -81 -5 0 -50 7 -102
15 -52 9 -101 13 -109 10 -8 -3 -25 2 -38 10 -29 19 -33 75 -7 100 20 21 94
15 145 -11z"/>
<path d="M5265 5545 c-11 -2 -59 -7 -107 -10 l-88 -7 0 -154 0 -155 48 36 c73
57 237 132 346 160 101 26 267 45 389 45 37 0 67 4 67 9 0 16 -43 41 -71 41
-15 0 -42 6 -61 14 -25 11 -97 16 -269 20 -129 2 -243 3 -254 1z"/>
<path d="M8510 2801 c-77 -25 -146 -86 -182 -160 -18 -36 -23 -63 -23 -126 0
-94 22 -151 78 -208 l36 -35 -24 -212 c-25 -221 -24 -249 14 -269 12 -7 90
-11 194 -11 168 0 174 1 195 23 27 29 27 37 1 274 l-22 193 38 41 c55 61 75
112 75 195 0 87 -20 149 -67 203 -53 62 -122 94 -213 97 -41 2 -86 0 -100 -5z"/>
</g>
</svg>
